<svg xmlns="http://www.w3.org/2000/svg" width="24" height="24" fill="currentColor" viewBox="0 0 24 24">
  <g>
    <rect x="1" y="1" width="4" height="4"/>
    <rect x="7" y="1" width="4" height="4"/>
    <rect x="13" y="1" width="4" height="4"/>
    <rect x="19" y="1" width="4" height="4"/>
    
    <rect x="1" y="7" width="4" height="4"/>
    <rect x="7" y="7" width="4" height="4"/>
    <rect x="13" y="7" width="4" height="4"/>
    <rect x="19" y="7" width="4" height="4"/>
    
    <rect x="1" y="13" width="4" height="4"/>
    <rect x="7" y="13" width="4" height="4"/>
    <rect x="13" y="13" width="4" height="4"/>
    <rect x="19" y="13" width="4" height="4"/>
    
    <rect x="1" y="19" width="4" height="4"/>
    <rect x="7" y="19" width="4" height="4"/>
    <rect x="13" y="19" width="4" height="4"/>
    <rect x="19" y="19" width="4" height="4"/>
  </g>
</svg>
